<svg xmlns="http://www.w3.org/2000/svg" viewBox="0 0 800 300" fill="none"><path fill="currentColor" d="M18 75 45 60 38 50 92 64 110 43 181 58 214 34 282 51 363 30 459 41 523 18 601 32 691 14 771 39 755 65 796 78 775 114 791 144 748 150 760 174 679 173 619 196 541 181 489 209 411 190 339 221 264 200 203 229 144 216 76 231 48 197 13 199 27 162 1 145 23 117Z"/><circle fill="currentColor" cx="262.5" cy="40.3" r="5.9"/><circle fill="currentColor" cx="789.2" cy="17.1" r="4.6"/><circle fill="currentColor" cx="403.7" cy="247.1" r="5.6"/><circle fill="currentColor" cx="282.5" cy="10.8" r="3.3"/><circle fill="currentColor" cx="464.9" cy="230.7" r="3.7"/><circle fill="currentColor" cx="86.0" cy="59.5" r="1.9"/><circle fill="currentColor" cx="640.1" cy="56.7" r="2.5"/><circle fill="currentColor" cx="172.5" cy="1.9" r="2.8"/><circle fill="currentColor" cx="334.5" cy="250.3" r="2.8"/><circle fill="currentColor" cx="84.0" cy="222.3" r="3.9"/><circle fill="currentColor" cx="260.4" cy="265.1" r="5.2"/><circle fill="currentColor" cx="676.8" cy="220.1" r="3.0"/><circle fill="currentColor" cx="665.7" cy="53.2" r="2.6"/><circle fill="currentColor" cx="120.9" cy="3.5" r="1.8"/><circle fill="currentColor" cx="478.9" cy="255.0" r="5.9"/><circle fill="currentColor" cx="341.7" cy="235.1" r="4.7"/><circle fill="currentColor" cx="439.3" cy="205.5" r="2.3"/><circle fill="currentColor" cx="246.3" cy="284.4" r="5.1"/><circle fill="currentColor" cx="49.2" cy="230.8" r="4.6"/><circle fill="currentColor" cx="548.4" cy="259.3" r="4.6"/><circle fill="currentColor" cx="48.7" cy="250.4" r="2.8"/><circle fill="currentColor" cx="587.0" cy="34.4" r="6.0"/><circle fill="currentColor" cx="304.2" cy="274.5" r="6.9"/><circle fill="currentColor" cx="92.0" cy="242.6" r="4.0"/><circle fill="currentColor" cx="385.7" cy="259.9" r="3.4"/><circle fill="currentColor" cx="360.4" cy="32.4" r="1.4"/><circle fill="currentColor" cx="70.3" cy="59.2" r="4.9"/><circle fill="currentColor" cx="142.5" cy="265.0" r="1.9"/><circle fill="currentColor" cx="385.9" cy="45.6" r="4.9"/><circle fill="currentColor" cx="534.7" cy="62.7" r="1.2"/><circle fill="currentColor" cx="299.4" cy="255.4" r="4.4"/><circle fill="currentColor" cx="264.9" cy="206.5" r="3.2"/><circle fill="currentColor" cx="227.7" cy="266.9" r="2.7"/><circle fill="currentColor" cx="60.0" cy="235.9" r="5.6"/><circle fill="currentColor" cx="52.1" cy="260.6" r="2.7"/><circle fill="currentColor" cx="260.2" cy="263.3" r="4.8"/><circle fill="currentColor" cx="215.7" cy="15.5" r="5.5"/><circle fill="currentColor" cx="320.5" cy="248.9" r="5.8"/><circle fill="currentColor" cx="756.7" cy="248.6" r="3.9"/><circle fill="currentColor" cx="413.4" cy="264.2" r="6.4"/><circle fill="currentColor" cx="207.4" cy="210.3" r="3.3"/><circle fill="currentColor" cx="77.9" cy="55.7" r="2.4"/><circle fill="currentColor" cx="339.0" cy="48.9" r="4.9"/><circle fill="currentColor" cx="422.5" cy="12.5" r="4.7"/><circle fill="currentColor" cx="163.1" cy="221.9" r="1.3"/><circle fill="currentColor" cx="154.6" cy="209.9" r="3.3"/><circle fill="currentColor" cx="444.6" cy="277.8" r="5.4"/><circle fill="currentColor" cx="384.4" cy="19.5" r="4.5"/><circle fill="currentColor" cx="201.2" cy="274.4" r="2.1"/><circle fill="currentColor" cx="438.0" cy="239.1" r="6.3"/><circle fill="currentColor" cx="407.0" cy="32.0" r="2.0"/><circle fill="currentColor" cx="221.6" cy="232.1" r="4.8"/><circle fill="currentColor" cx="144.0" cy="62.4" r="5.4"/><circle fill="currentColor" cx="16.1" cy="45.4" r="3.6"/><circle fill="currentColor" cx="434.4" cy="12.8" r="6.3"/><circle fill="currentColor" cx="729.3" cy="209.5" r="6.6"/><circle fill="currentColor" cx="380.8" cy="246.1" r="6.2"/><circle fill="currentColor" cx="548.9" cy="267.8" r="5.4"/><circle fill="currentColor" cx="34.5" cy="14.1" r="6.5"/><circle fill="currentColor" cx="72.7" cy="229.2" r="6.0"/><circle fill="currentColor" cx="130.9" cy="16.0" r="2.5"/><circle fill="currentColor" cx="28.2" cy="216.3" r="3.6"/><circle fill="currentColor" cx="441.7" cy="4.3" r="6.2"/><circle fill="currentColor" cx="247.1" cy="221.4" r="4.2"/><circle fill="currentColor" cx="595.5" cy="10.9" r="3.2"/></svg>
