<svg xmlns="http://www.w3.org/2000/svg" viewBox="0 0 800 220" fill="none"><g fill="none" stroke="currentColor"><path stroke-width="3" stroke-dasharray="10 8" d="M24 174C110 174 118 38 224 66S343 214 454 138 590 26 776 72"/><path stroke-width="1" d="M24 186C112 186 124 52 226 80S350 226 458 150 596 38 776 84"/><path stroke-width="2" d="M24 156 24 192M776 54V90"/></g><g fill="currentColor"><path d="M24 162 38 174 24 186 10 174Z"/><path d="M224 54 238 66 224 78 210 66Z"/><path d="M454 126 468 138 454 150 440 138Z"/><path d="M776 60 790 72 776 84 762 72Z"/></g></svg>
