<svg xmlns="http://www.w3.org/2000/svg" viewBox="0 0 800 220" fill="none"><path fill="currentColor" d="M22 48 54 30 88 38 128 18 174 31 225 20 278 34 330 17 384 33 438 18 492 36 548 24 604 40 659 25 716 42 778 28 790 72 776 108 793 146 769 181 738 169 700 188 648 174 599 193 546 178 498 195 447 176 394 193 343 177 292 194 241 177 188 192 140 176 92 193 48 176 18 188 30 148 9 120 31 91Z"/><path fill="none" stroke="currentColor" stroke-width="2" opacity=".7" d="M52 70 740 54M37 151 757 132"/><path fill="none" stroke="currentColor" d="M75 58 63 102 75 144M726 49 738 91 726 136"/></svg>
